<?xml version="1.0" encoding="UTF-8" ?>
<!DOCTYPE svg PUBLIC "-//W3C//DTD SVG 1.1//EN" "http://www.w3.org/Graphics/SVG/1.1/DTD/svg11.dtd">
<svg width="980pt" height="980pt" viewBox="0 0 980 980" version="1.1" xmlns="http://www.w3.org/2000/svg">
<g id="#ffffffff">
<path fill="#ffffff" opacity="1.00" d=" M 466.01 4.08 C 556.66 -0.51 648.43 21.03 727.55 65.52 C 789.22 99.99 843.19 148.14 884.45 205.49 C 923.28 259.27 950.88 321.11 965.02 385.92 C 979.19 450.50 979.96 517.99 967.28 582.88 C 952.01 661.76 916.73 736.66 865.65 798.68 C 819.82 854.54 761.35 899.93 695.87 930.49 C 653.66 950.22 608.60 963.86 562.53 970.80 C 499.59 980.34 434.78 977.34 373.00 962.01 C 308.68 946.13 247.69 916.90 195.03 876.70 C 136.57 832.24 88.48 774.29 55.48 708.68 C 16.58 631.66 -1.23 544.16 4.54 458.07 C 9.59 379.59 34.13 302.47 75.32 235.49 C 121.10 160.64 187.62 98.69 265.52 58.32 C 327.42 26.11 396.31 7.44 466.01 4.08 M 447.70 45.20 C 465.09 57.90 480.92 72.62 495.79 88.16 C 521.34 115.18 544.81 144.42 563.23 176.80 C 579.34 205.10 591.15 236.35 594.16 268.94 C 596.22 291.90 595.04 315.42 588.41 337.60 C 582.80 356.33 572.83 373.44 561.14 389.00 C 542.81 413.17 520.14 433.61 496.97 453.02 C 449.84 492.57 402.70 532.10 355.59 571.67 C 328.77 594.00 302.24 616.70 275.27 638.84 C 260.50 620.93 245.50 603.21 230.55 585.45 C 297.85 528.76 365.35 472.30 432.73 415.70 C 455.84 396.30 479.69 377.29 498.61 353.57 C 509.77 339.59 518.82 323.52 522.40 305.85 C 527.35 282.10 522.97 257.28 513.87 235.07 C 501.72 205.95 482.74 180.34 462.75 156.17 C 442.74 132.58 420.92 109.76 394.16 93.80 C 372.63 81.43 347.73 71.79 322.51 75.67 C 232.04 111.90 154.45 179.00 105.04 262.96 C 68.30 324.96 47.08 396.04 43.75 468.02 C 41.30 518.84 47.44 570.10 62.17 618.81 C 82.47 686.41 119.27 748.94 168.32 799.68 C 215.69 848.89 274.47 887.07 338.78 910.10 C 400.42 932.33 467.01 940.45 532.21 934.27 C 504.63 911.83 480.82 885.15 459.28 856.95 C 441.19 833.10 424.76 807.69 413.40 779.90 C 407.36 765.25 403.39 749.80 401.24 734.11 C 397.23 706.75 398.81 678.44 407.05 651.98 C 415.53 623.75 433.31 599.43 452.94 577.89 C 477.26 551.08 506.04 528.96 533.52 505.57 C 594.93 454.04 656.33 402.50 717.75 351.00 C 732.79 368.80 747.63 386.77 762.76 404.49 C 752.75 413.29 742.36 421.67 732.21 430.31 C 669.50 482.92 606.80 535.54 544.09 588.15 C 530.57 599.56 517.36 611.39 505.29 624.34 C 494.51 635.88 484.70 648.56 478.02 662.95 C 471.07 677.91 467.12 694.55 468.43 711.10 C 469.74 728.16 474.70 744.78 481.37 760.47 C 489.74 779.41 501.32 796.73 513.81 813.17 C 530.61 834.79 548.76 855.50 569.29 873.67 C 588.56 890.75 610.84 905.45 636.13 911.63 C 686.94 894.25 734.36 867.16 775.60 832.79 C 842.82 776.91 893.13 700.90 917.86 617.02 C 937.50 551.09 941.42 480.60 929.68 412.84 C 918.98 350.95 894.87 291.45 859.60 239.48 C 819.10 179.68 763.93 129.88 700.21 95.84 C 623.47 54.53 534.41 36.89 447.70 45.20 Z" />
</g>
<g id="#242e36ff">
<path fill="#242e36" opacity="1.00" d=" M 447.70 45.20 C 534.41 36.89 623.47 54.53 700.21 95.84 C 763.93 129.88 819.10 179.68 859.60 239.48 C 894.87 291.45 918.98 350.95 929.68 412.84 C 941.42 480.60 937.50 551.09 917.86 617.02 C 893.13 700.90 842.82 776.91 775.60 832.79 C 734.36 867.16 686.94 894.25 636.13 911.63 C 610.84 905.45 588.56 890.75 569.29 873.67 C 548.76 855.50 530.61 834.79 513.81 813.17 C 501.32 796.73 489.74 779.41 481.37 760.47 C 474.70 744.78 469.74 728.16 468.43 711.10 C 467.12 694.55 471.07 677.91 478.02 662.95 C 484.70 648.56 494.51 635.88 505.29 624.34 C 517.36 611.39 530.57 599.56 544.09 588.15 C 606.80 535.54 669.50 482.92 732.21 430.31 C 742.36 421.67 752.75 413.29 762.76 404.49 C 747.63 386.77 732.79 368.80 717.75 351.00 C 656.33 402.50 594.93 454.04 533.52 505.57 C 506.04 528.96 477.26 551.08 452.94 577.89 C 433.31 599.43 415.53 623.75 407.05 651.98 C 398.81 678.44 397.23 706.75 401.24 734.11 C 403.39 749.80 407.36 765.25 413.40 779.90 C 424.76 807.69 441.19 833.10 459.28 856.95 C 480.82 885.15 504.63 911.83 532.21 934.27 C 467.01 940.45 400.42 932.33 338.78 910.10 C 274.47 887.07 215.69 848.89 168.32 799.68 C 119.27 748.94 82.47 686.41 62.17 618.81 C 47.44 570.10 41.30 518.84 43.75 468.02 C 47.08 396.04 68.30 324.96 105.04 262.96 C 154.45 179.00 232.04 111.90 322.51 75.67 C 347.73 71.79 372.63 81.43 394.16 93.80 C 420.92 109.76 442.74 132.58 462.75 156.17 C 482.74 180.34 501.72 205.95 513.87 235.07 C 522.97 257.28 527.35 282.10 522.40 305.85 C 518.82 323.52 509.77 339.59 498.61 353.57 C 479.69 377.29 455.84 396.30 432.73 415.70 C 365.35 472.30 297.85 528.76 230.55 585.45 C 245.50 603.21 260.50 620.93 275.27 638.84 C 302.24 616.70 328.77 594.00 355.59 571.67 C 402.70 532.10 449.84 492.57 496.97 453.02 C 520.14 433.61 542.81 413.17 561.14 389.00 C 572.83 373.44 582.80 356.33 588.41 337.60 C 595.04 315.42 596.22 291.90 594.16 268.94 C 591.15 236.35 579.34 205.10 563.23 176.80 C 544.81 144.42 521.34 115.18 495.79 88.16 C 480.92 72.62 465.09 57.90 447.70 45.20 Z" />
</g>
</svg>
